<?xml version="1.0" encoding="utf-8"?>
<!-- Generator: Adobe Illustrator 25.4.1, SVG Export Plug-In . SVG Version: 6.00 Build 0)  -->
<svg version="1.1" id="Layer_1" xmlns="http://www.w3.org/2000/svg" xmlns:xlink="http://www.w3.org/1999/xlink" x="0px" y="0px"
	 viewBox="0 0 332.1 318.4" style="enable-background:new 0 0 332.1 318.4;" xml:space="preserve">
<style type="text/css">
	.st0{fill:#F93A3A;}
	.st1{fill:#FF3A3A;}
</style>
<path class="st0" d="M164.6,12c81.3,0,147.2,65.9,147.2,147.2s-65.9,147.2-147.2,147.2S17.4,240.5,17.4,159.2l0,0
	C17.4,77.9,83.3,12,164.6,12 M164.6,0C76.7,0,5.4,71.3,5.4,159.2s71.3,159.2,159.2,159.2s159.2-71.3,159.2-159.2
	c0-42.2-16.8-82.7-46.6-112.6C247.4,16.7,206.9-0.1,164.6,0L164.6,0z"/>
<path class="st0" d="M183.8,239.9c-7.6-4.7-16.9-14.2-17.3-14.7l0,0c-34.2-1.9-61.3-30.5-61.3-65.5s27.1-63.6,61.3-65.5
	c0,0,11.3-11.3,16.2-14.6c4.4-3,9.1-5.6,14-7.7c-4.2-1.7-8.6-3-13.1-3.7c-5.7-0.8-11.5-1.1-17.2-0.9l0,0c-25.8,0-47.3,9-64.5,26.9
	c-17.2,17.4-25.8,39.2-25.8,65.2c-0.1,12.3,2.2,24.5,6.8,35.9c4.4,10.9,10.8,20.8,19,29.3c16.8,17.4,40.1,27.1,64.3,26.9l0,0
	c5.3,0.1,9.2-0.1,12-0.2s8.8-0.7,12.9-1.3c6-0.9,9.3-1.7,9.3-1.7C194.7,245.8,189.1,243,183.8,239.9z"/>
<path class="st0" d="M170.4,159.7c0-34.9,27-63.4,61-65.5v-27c-25.8,0-47.3,9-64.5,26.9c-17.2,17.4-25.8,39.1-25.8,65.2
	c-0.1,12.3,2.2,24.5,6.8,35.9c4.4,10.9,10.8,20.8,19,29.3c16.9,17.4,40.2,27.2,64.5,26.9v-26.1C197.3,223.1,170.4,194.6,170.4,159.7
	z"/>
<rect x="162.4" y="148.5" class="st1" width="46.4" height="21.6"/>
</svg>
