<svg xmlns="http://www.w3.org/2000/svg" viewBox="0 0 1024 768"><defs><style>.a{fill:#f93a3a;stroke-width:11px;}.a,.c,.d{stroke:#000;stroke-miterlimit:10;}.b,.d{fill:#feffd6;}.c{fill:none;stroke-width:27.99px;}.d{font-size:82.39px;stroke-width:3.09px;font-family:Righteous-Regular, Righteous;}.e{letter-spacing:0.07em;}.f{letter-spacing:0.05em;}.g{letter-spacing:0.1em;}.h{letter-spacing:0.06em;}.i{letter-spacing:0.05em;}.j{letter-spacing:-0.01em;}.k{letter-spacing:-0.02em;}.l{letter-spacing:0.04em;}.m{letter-spacing:0.02em;}</style></defs><title>cannon-electric-logo</title><rect class="a" x="236.62" y="51.92" width="538.48" height="672.64"/><path d="M502.47,451.55c-84.49,0-153.22-68.73-153.22-153.22S418,145.11,502.47,145.11s153.22,68.73,153.22,153.22S587,451.55,502.47,451.55Z"/><path class="b" d="M502.47,151.11A147.22,147.22,0,1,1,355.25,298.33,147.22,147.22,0,0,1,502.47,151.11m0-12a159.22,159.22,0,1,0,112.58,46.63,158.18,158.18,0,0,0-112.58-46.63Z"/><circle class="c" cx="502.47" cy="298.33" r="172.25"/><path class="b" d="M516.6,379c-7.6-4.7-16.9-14.2-17.3-14.7h0c-34.2-1.9-61.3-30.5-61.3-65.5s27.1-63.6,61.3-65.5c0,0,11.3-11.3,16.2-14.6a90.52,90.52,0,0,1,14-7.7,59.37,59.37,0,0,0-13.1-3.7,98.69,98.69,0,0,0-17.2-.9h0q-38.7,0-64.5,26.9c-17.2,17.4-25.8,39.2-25.8,65.2a93.89,93.89,0,0,0,6.8,35.9,91.29,91.29,0,0,0,19,29.3A88.4,88.4,0,0,0,499,390.6h0c5.3.1,9.2-.1,12-.2s8.8-.7,12.9-1.3c6-.9,9.3-1.7,9.3-1.7A184.2,184.2,0,0,1,516.6,379Z"/><path class="b" d="M506.2,298.78c0-34.91,27-63.44,61-65.51v-27q-38.67,0-64.45,26.89Q477,259.29,477,298.33a94.35,94.35,0,0,0,6.81,35.91,90.43,90.43,0,0,0,19,29.28,88.26,88.26,0,0,0,64.45,26.89V364.3C533.17,362.23,506.2,333.69,506.2,298.78Z"/><rect class="b" x="498.24" y="287.6" width="46.35" height="21.59"/><text class="d" transform="translate(315.64 568.62)"><tspan class="e">C<tspan class="f" x="58.92" y="0">A</tspan><tspan class="g" x="118.72" y="0">N</tspan><tspan class="h" x="184.04" y="0">N</tspan><tspan class="i" x="245.99" y="0">O</tspan><tspan x="314.44" y="0">N</tspan></tspan><tspan class="j" x="0" y="77.81">E</tspan><tspan x="47.05" y="77.81">L</tspan><tspan class="k" x="93.44" y="77.81">E</tspan><tspan class="l" x="139.66" y="77.81">C</tspan><tspan class="m" x="195.53" y="77.81">T</tspan><tspan x="245.13" y="77.81">RIC</tspan></text></svg>