<svg xmlns="http://www.w3.org/2000/svg" viewBox="0 0 2174 518"><defs><style>.a,.c{fill:#feffd6;}.b{fill:none;stroke-width:27.99px;}.b,.c{stroke:#000;stroke-miterlimit:10;}.c{font-size:173.08px;stroke-width:6.49px;font-family:Righteous-Regular, Righteous;}.d{letter-spacing:-0.02em;}</style></defs><title>cannon-electric-logo-trans-wide-single</title><path d="M302.47,412.55c-84.49,0-153.22-68.73-153.22-153.22S218,106.11,302.47,106.11s153.22,68.73,153.22,153.22S387,412.55,302.47,412.55Z"/><path class="a" d="M302.47,112.11A147.22,147.22,0,1,1,155.25,259.33,147.22,147.22,0,0,1,302.47,112.11m0-12a159.22,159.22,0,1,0,112.58,46.63,158.18,158.18,0,0,0-112.58-46.63Z"/><circle class="b" cx="302.47" cy="259.33" r="172.25"/><path class="a" d="M316.6,340c-7.6-4.7-16.9-14.2-17.3-14.7h0c-34.2-1.9-61.3-30.5-61.3-65.5s27.1-63.6,61.3-65.5c0,0,11.3-11.3,16.2-14.6a90.52,90.52,0,0,1,14-7.7,59.37,59.37,0,0,0-13.1-3.7,98.69,98.69,0,0,0-17.2-.9h0q-38.7,0-64.5,26.9c-17.2,17.4-25.8,39.2-25.8,65.2a93.89,93.89,0,0,0,6.8,35.9,91.29,91.29,0,0,0,19,29.3A88.4,88.4,0,0,0,299,351.6h0c5.3.1,9.2-.1,12-.2s8.8-.7,12.9-1.3c6-.9,9.3-1.7,9.3-1.7A184.2,184.2,0,0,1,316.6,340Z"/><path class="a" d="M306.2,259.78c0-34.91,27-63.44,61-65.51v-27q-38.67,0-64.45,26.89Q277,220.29,277,259.33a94.35,94.35,0,0,0,6.81,35.91,90.43,90.43,0,0,0,19,29.28,88.26,88.26,0,0,0,64.45,26.89V325.3C333.17,323.23,306.2,294.69,306.2,259.78Z"/><rect class="a" x="298.24" y="248.6" width="46.35" height="21.59"/><text class="c" transform="translate(522.42 264.24)">CANNON EL<tspan class="d" x="966.25" y="0">E</tspan><tspan x="1063.35" y="0">CTRIC</tspan></text></svg>