<svg fill="#F8F9D1" id="Layer_1" enable-background="new 0 0 511.982 511.982" height="512" viewBox="0 0 511.982 511.982" width="512" xmlns="http://www.w3.org/2000/svg"><g><g><path d="m461.114 191.547-18.099-31.737-.179-33.623c.953-14.078-6.253-27.709-18.448-34.828l-31.416-18.36-18.363-31.42c-6.62-11.317-18.932-18.379-32.115-18.43l-36.333-.193-31.21-17.799c-11.48-6.763-25.794-6.885-37.394-.3l-31.737 18.098-33.623.179c-14.076-.948-27.71 6.254-34.828 18.448l-18.361 31.416-31.42 18.364c-11.317 6.62-18.379 18.932-18.43 32.115l-.193 36.332-17.799 31.213c-6.762 11.481-6.882 25.794-.299 37.393l18.099 31.736.179 33.623c-.953 14.078 6.253 27.71 18.448 34.828l31.416 18.361 18.363 31.419c6.03 10.309 16.784 17.087 28.619 18.252v105.349c0 3.344 1.671 6.467 4.455 8.322 2.783 1.855 6.31 2.195 9.395.908l76.15-31.764 76.15 31.764c3.075 1.284 6.606.951 9.395-.908 2.783-1.854 4.455-4.978 4.455-8.322v-105.259c11.772-1.186 22.558-7.957 28.621-18.346l18.361-31.416 31.42-18.364c11.316-6.62 18.378-18.931 18.43-32.115l.193-36.331 17.797-31.209c6.764-11.483 6.886-25.797.301-37.396zm-201.274 267.835c-2.463-1.027-5.236-1.027-7.699 0l-66.15 27.593v-90.076l19.829.105 31.214 17.801c11.487 6.765 25.8 6.877 37.391.298l31.737-18.099 19.83-.105v90.076zm183.721-240.558c-.028.047-.056.094-.083.142l-19.135 33.556c-.852 1.494-1.304 3.181-1.313 4.9l-.208 38.967c-.024 6.155-3.292 11.881-8.525 14.942l-33.681 19.686c-1.484.867-2.72 2.103-3.588 3.587l-19.688 33.685c-3.347 5.735-9.785 9.106-16.418 8.565-.284-.022-.569-.037-.853-.032l-36.638.195c-1.719.009-3.407.461-4.9 1.313l-33.998 19.388c-5.386 3.056-12.049 2.992-17.388-.17-.047-.028-.094-.055-.142-.082l-33.556-19.136c-1.493-.852-3.181-1.304-4.9-1.313l-38.968-.207c-6.155-.024-11.881-3.292-14.942-8.526l-19.686-33.68c-.867-1.484-2.103-2.72-3.587-3.588l-33.684-19.687c-5.735-3.347-9.097-9.791-8.565-16.417.023-.284.034-.568.032-.853l-.195-36.639c-.009-1.719-.461-3.407-1.313-4.901l-19.387-33.997c-3.057-5.386-2.992-12.048.17-17.388.028-.047.055-.094.083-.142l19.135-33.556c.852-1.494 1.304-3.181 1.313-4.9l.208-38.969c.023-6.154 3.292-11.88 8.525-14.942l33.681-19.685c1.484-.868 2.72-2.104 3.588-3.588l19.688-33.685c3.337-5.741 9.843-9.105 16.418-8.565.283.023.564.03.853.032l36.638-.195c1.719-.009 3.407-.461 4.9-1.313l33.997-19.388c5.386-3.057 12.048-2.992 17.388.17.047.028.094.055.142.083l33.555 19.135c1.493.852 3.181 1.304 4.9 1.313l38.97.208c6.154.023 11.88 3.292 14.941 8.525l19.686 33.681c.867 1.484 2.103 2.72 3.587 3.588l33.685 19.687c5.735 3.348 9.097 9.792 8.565 16.418-.023.284-.034.568-.032.853l.195 36.639c.009 1.719.461 3.407 1.313 4.9l19.388 33.998c3.056 5.387 2.991 12.049-.171 17.388z"/><path d="m255.991 54.98c-125.812-1.063-200.363 146.854-124.642 247.145 19.462 26.28 46.126 45.443 77.11 55.417 5.255 1.69 10.891-1.197 12.583-6.455 1.692-5.257-1.198-10.891-6.455-12.583-145.238-49.347-111.966-260.808 41.405-263.524 153.398 2.74 186.625 214.195 41.394 263.525-5.256 1.692-8.146 7.325-6.454 12.582 1.68 5.306 7.467 8.146 12.583 6.456 166.822-57.965 129.24-298.299-47.524-302.563z"/><path d="m348.49 256.479v-63.225c0-16.542-13.381-30-29.83-30h-39.556l-10.7-36.672c-3.398-11.648-13.963-20.103-25.12-20.103h-19.995c-5.523 0-10 4.477-10 10v46.774h-34.799c-5.523 0-10 4.477-10 10v103.226c0 2.652 1.054 5.196 2.929 7.071s4.419 2.929 7.071 2.929l140.17-.001c16.449 0 29.83-13.457 29.83-29.999zm-135.201 10h-24.799v-83.226h24.799zm20-140h9.995c1.928 0 4.999 2.544 5.92 5.704l12.8 43.871c1.245 4.266 5.155 7.199 9.6 7.199h47.056c5.42 0 9.83 4.486 9.83 10v63.225c0 5.514-4.41 9.999-9.83 9.999h-85.371z"/><path d="m255.991 344.979h-.007c-5.523 0-9.996 4.477-9.996 10 .528 13.263 19.479 13.263 20.003 0 0-5.523-4.477-10-10-10z"/></g></g></svg>