<svg fill="#F8F9D1" id="Capa_1" enable-background="new 0 0 512 512" height="512" viewBox="0 0 512 512" width="512" xmlns="http://www.w3.org/2000/svg"><g><path d="m401.398 164.457 44.356-70.659c1.45-2.311 1.531-5.229.211-7.617s-3.834-3.871-6.563-3.871h-222.732v-15.935c7.699-6.981 12.542-17.058 12.542-28.245 0-21.025-17.105-38.13-38.13-38.13s-38.13 17.105-38.13 38.13c0 11.174 4.831 21.24 12.514 28.22v338.815h-44.876c-10.363 0-18.794 8.431-18.794 18.794v27.137h-17.903c-10.363 0-18.794 8.431-18.794 18.794v23.314c0 10.363 8.431 18.794 18.794 18.794h228.692c10.363 0 18.794-8.431 18.794-18.794v-23.314c0-10.363-8.431-18.794-18.794-18.794h-17.903v-27.136c0-10.363-8.431-18.794-18.794-18.794h-59.218v-158.563h113.829c4.143 0 7.5-3.358 7.5-7.5s-3.357-7.5-7.5-7.5h-113.829v-134.292h209.168l-39.648 63.158c-1.53 2.438-1.53 5.537 0 7.976l39.648 63.158h-59.89c-4.143 0-7.5 3.358-7.5 7.5s3.357 7.5 7.5 7.5h73.453c2.729 0 5.243-1.482 6.563-3.871s1.239-5.306-.211-7.617zm-210.316-149.457c12.754 0 23.13 10.376 23.13 23.13 0 7.706-3.791 14.539-9.603 18.745-7.823 5.681-18.631 5.768-26.595.327-6.071-4.173-10.062-11.164-10.062-19.072 0-12.754 10.376-23.13 23.13-23.13zm88.6 408.96v27.137h-70.86c-4.143 0-7.5 3.358-7.5 7.5s3.357 7.5 7.5 7.5h103.764c2.057 0 3.794 1.737 3.794 3.794v23.314c0 2.057-1.737 3.794-3.794 3.794h-228.693c-2.057 0-3.794-1.737-3.794-3.794v-23.314c0-2.057 1.737-3.794 3.794-3.794h89.45c4.143 0 7.5-3.358 7.5-7.5s-3.357-7.5-7.5-7.5h-56.547v-27.137c0-2.057 1.737-3.794 3.794-3.794h155.298c2.056 0 3.794 1.738 3.794 3.794zm-99.216-18.794v-330.399c6.865 1.985 14.337 1.989 21.204.009v330.39z"/></g></svg>