<svg id="Layer_1" data-name="Layer 1" xmlns="http://www.w3.org/2000/svg" viewBox="0 0 1366 768"><defs><style>.cls-1,.cls-3{fill:#fff;}.cls-2{fill:#1f0089;}.cls-3{stroke:#fff;stroke-width:38px;}.cls-3,.cls-9{stroke-miterlimit:10;}.cls-4,.cls-9{fill:#ff7b0a;}.cls-5{font-size:76px;letter-spacing:-0.02em;}.cls-5,.cls-6,.cls-7{fill:#3b4d81;}.cls-5,.cls-6{font-family:Perpetua-Bold, Perpetua;font-weight:700;}.cls-6{font-size:53px;letter-spacing:-0.02em;}.cls-7{font-size:44px;font-family:Rockwell;letter-spacing:-0.02em;}.cls-8{letter-spacing:-0.03em;}.cls-9{stroke:#ff7b0a;stroke-width:4px;}</style></defs><rect class="cls-1" x="494.57" y="292.77" width="178" height="178" rx="11.15"/><path class="cls-2" d="M661.42,303.27a.65.65,0,0,1,.65.65V459.61a.66.66,0,0,1-.65.66H505.72a.66.66,0,0,1-.65-.66V303.92a.65.65,0,0,1,.65-.65h155.7m0-21H505.72a21.65,21.65,0,0,0-21.65,21.65V459.61a21.65,21.65,0,0,0,21.65,21.66h155.7a21.66,21.66,0,0,0,21.65-21.66V303.92a21.65,21.65,0,0,0-21.65-21.65Z"/><line class="cls-3" x1="584.04" y1="282.02" x2="584.04" y2="485.02"/><line class="cls-3" x1="783.55" y1="383.75" x2="481.04" y2="387.02"/><path class="cls-4" d="M566.9,417.38l6.75-32.6a34.54,34.54,0,0,0,.87-6.84q0-8.69-12.54-8.78l.78-3.37L595,361.25h2.12l-11.66,55.37a25.76,25.76,0,0,0-.58,5q0,7.81,10.74,9l-.58,3.38h-43.2l.87-3.38Q564.49,429,566.9,417.38Zm22.09-78a10.57,10.57,0,0,1-7.77-3.23,10.7,10.7,0,0,1-3.23-7.86,11,11,0,0,1,22.09,0A11,11,0,0,1,589,339.36Z"/><text class="cls-5" transform="translate(613.43 404.3)">P</text><text class="cls-6" transform="translate(688.16 397.88)">INT</text><text class="cls-7" transform="translate(686.22 431.86)">A<tspan class="cls-8" x="29.97" y="0">d</tspan><tspan x="56.3" y="0">visors</tspan></text><line class="cls-9" x1="690.55" y1="439.75" x2="850.55" y2="439.75"/><circle class="cls-4" cx="672.54" cy="383.52" r="11.5"/></svg>